<svg width="90" height="23" viewBox="0 0 90 23" fill="none" xmlns="http://www.w3.org/2000/svg">
<path d="M7.08384 17.3049C5.63915 17.3049 4.38263 17.0425 3.31429 16.5175C2.24595 15.9804 1.42648 15.2235 0.855888 14.2468C0.285296 13.2702 0 12.1348 0 10.8408C0 9.04618 0.333857 7.45303 1.00157 6.06131C1.68143 4.66959 2.59801 3.59528 3.75134 2.83838C4.90466 2.06927 6.18546 1.68471 7.59373 1.68471C8.90488 1.68471 9.90038 2.02654 10.5802 2.71019C11.2601 3.38163 11.6 4.27282 11.6 5.38376C11.6 6.12845 11.4665 6.72664 11.1994 7.17834C10.9444 7.63004 10.5742 7.85589 10.0886 7.85589C9.74862 7.85589 9.48154 7.77654 9.2873 7.61784C9.09305 7.45913 8.99593 7.22718 8.99593 6.92197C8.99593 6.8121 9.02021 6.61067 9.06877 6.31767C9.14161 5.95143 9.17803 5.65844 9.17803 5.43869C9.17803 4.32776 8.58923 3.77229 7.41163 3.77229C6.61037 3.77229 5.84553 4.03477 5.11712 4.55971C4.3887 5.08466 3.7999 5.85987 3.35071 6.88535C2.90152 7.89862 2.67693 9.10722 2.67693 10.5111C2.67693 11.9761 3.08362 13.1115 3.89702 13.9172C4.71042 14.7107 5.9123 15.1075 7.50268 15.1075C8.29179 15.1075 9.08698 15.0098 9.88824 14.8145C10.7016 14.607 11.6 14.2956 12.5834 13.8806C12.7655 13.8073 12.9172 13.7707 13.0386 13.7707C13.2329 13.7707 13.3786 13.8439 13.4757 13.9904C13.5728 14.1369 13.6214 14.3262 13.6214 14.5581C13.6214 15.3028 13.2207 15.8522 12.4195 16.2062C11.5575 16.5847 10.6591 16.8654 9.72434 17.0486C8.80169 17.2195 7.92152 17.3049 7.08384 17.3049ZM14.4326 17.3049C13.6799 17.3049 13.0789 17.0303 12.6298 16.4809C12.1806 15.9315 11.956 15.2113 11.956 14.3201C11.956 13.3434 12.1806 12.4217 12.6298 11.5549C13.0789 10.676 13.6738 9.97399 14.4144 9.44904C15.1671 8.91189 15.9623 8.64331 16.8 8.64331C17.0671 8.64331 17.2431 8.69825 17.3281 8.80812C17.4252 8.90579 17.5041 9.08891 17.5648 9.35748C17.8198 9.30865 18.0869 9.28424 18.3661 9.28424C18.961 9.28424 19.2584 9.49787 19.2584 9.92516C19.2584 10.1815 19.1673 10.7919 18.9852 11.7564C18.706 13.1603 18.5664 14.1369 18.5664 14.6863C18.5664 14.8694 18.6089 15.0159 18.6939 15.1258C18.791 15.2357 18.9124 15.2906 19.0581 15.2906C19.2887 15.2906 19.568 15.1441 19.8958 14.8511C20.2235 14.5459 20.6667 14.0576 21.2251 13.3861C21.3708 13.2152 21.5347 13.1298 21.7168 13.1298C21.8746 13.1298 21.996 13.203 22.081 13.3495C22.1781 13.496 22.2267 13.6974 22.2267 13.9538C22.2267 14.4421 22.1113 14.8206 21.8807 15.0892C21.3829 15.7118 20.8548 16.2367 20.2964 16.664C19.7379 17.0913 19.1977 17.3049 18.6757 17.3049C18.275 17.3049 17.9048 17.1706 17.5648 16.9021C17.237 16.6213 16.9882 16.2428 16.8182 15.7667C16.1869 16.7922 15.3917 17.3049 14.4326 17.3049ZM15.0882 15.4554C15.3553 15.4554 15.6102 15.2967 15.853 14.9793C16.0959 14.6619 16.2719 14.2407 16.3812 13.7158L17.0549 10.3463C16.545 10.3585 16.0716 10.5539 15.6345 10.9323C15.2096 11.2986 14.8697 11.7869 14.6147 12.3973C14.3598 13.0077 14.2323 13.6547 14.2323 14.3384C14.2323 14.7168 14.3052 14.9976 14.4508 15.1807C14.6087 15.3639 14.8211 15.4554 15.0882 15.4554ZM27.8347 12.086C28.1746 12.086 28.3446 12.3424 28.3446 12.8551C28.3446 13.8195 27.5919 14.3017 26.0865 14.3017C25.7952 14.3017 25.3763 14.2468 24.83 14.1369C24.9878 14.8938 25.1153 15.7362 25.2124 16.664C25.3217 17.5796 25.3763 18.3365 25.3763 18.9347C25.3763 20.2532 25.1639 21.2604 24.739 21.9562C24.314 22.6521 23.7556 23 23.0636 23C22.1895 23 21.5643 22.3774 21.1879 21.1322C20.8237 19.8869 20.6416 18.0069 20.6416 15.492C20.6416 13.1481 20.8905 10.7736 21.3882 8.36863C21.8981 5.95143 22.5901 3.95541 23.4642 2.38057C24.3505 0.793521 25.3217 0 26.3779 0C26.9485 0 27.3916 0.256366 27.7072 0.769105C28.035 1.28184 28.1989 1.9716 28.1989 2.83838C28.1989 5.70727 26.4932 8.83253 23.0818 12.2142C22.9604 13.4106 22.8997 14.4605 22.8997 15.3638C22.8997 16.6213 22.9422 17.9092 23.0272 19.2277C23.1122 20.5584 23.2518 21.2237 23.446 21.2237C23.8102 21.2237 23.9923 20.5889 23.9923 19.3193C23.9923 18.367 23.9256 17.4453 23.792 16.5541C23.6706 15.663 23.5007 14.7229 23.2821 13.7341C23.27 13.5754 23.3185 13.3739 23.4278 13.1298C23.5492 12.8856 23.6949 12.672 23.8649 12.4889C24.0348 12.3057 24.1866 12.2142 24.3201 12.2142C24.5629 12.2142 24.8543 12.2264 25.1942 12.2508C25.3035 12.263 25.431 12.2691 25.5766 12.2691C26.0622 12.2691 26.6025 12.2264 27.1974 12.1409C27.2945 12.1287 27.3977 12.1165 27.5069 12.1043C27.6162 12.0921 27.7255 12.086 27.8347 12.086ZM25.9955 1.8129C25.7769 1.8129 25.5038 2.18524 25.176 2.92993C24.8604 3.67463 24.5447 4.66348 24.2291 5.89649C23.9134 7.1173 23.6403 8.41136 23.4096 9.77866C24.3808 8.66772 25.1274 7.51407 25.6495 6.31767C26.1715 5.10908 26.4386 3.97983 26.4507 2.92993C26.4507 2.18524 26.299 1.8129 25.9955 1.8129ZM33.4901 13.6791C33.6479 13.6791 33.7693 13.7524 33.8543 13.8989C33.9514 14.0454 34 14.2468 34 14.5032C34 14.9427 33.8968 15.3211 33.6904 15.6385C33.3505 16.1635 32.9013 16.5725 32.3429 16.8654C31.7965 17.1584 31.141 17.3049 30.3761 17.3049C29.2107 17.3049 28.3062 16.957 27.6628 16.2611C27.0194 15.5531 26.6976 14.6009 26.6976 13.4045C26.6976 12.5621 26.8737 11.7808 27.2257 11.0605C27.5778 10.328 28.0634 9.74814 28.6826 9.32086C29.3139 8.89357 30.0241 8.67994 30.8132 8.67994C31.5173 8.67994 32.0818 8.89357 32.5067 9.32086C32.9317 9.73593 33.1441 10.3036 33.1441 11.0239C33.1441 11.8662 32.8406 12.5926 32.2336 13.203C31.6387 13.8012 30.6189 14.2773 29.1742 14.6314C29.4656 15.1929 29.9573 15.4737 30.6493 15.4737C31.147 15.4737 31.5537 15.3577 31.8694 15.1258C32.1972 14.8938 32.5735 14.5032 32.9984 13.9538C33.1441 13.7707 33.308 13.6791 33.4901 13.6791ZM30.5036 10.4745C30.0544 10.4745 29.672 10.737 29.3564 11.2619C29.0528 11.7869 28.9011 12.4217 28.9011 13.1664V13.203C29.6174 13.0321 30.1819 12.7757 30.5947 12.4339C31.0074 12.0921 31.2138 11.6953 31.2138 11.2436C31.2138 11.0117 31.147 10.8286 31.0135 10.6943C30.8921 10.5478 30.7221 10.4745 30.5036 10.4745Z" fill="#FF912B"/>
<path d="M45.3655 17C43.7418 17 42.4416 16.6973 41.465 16.0919C40.4883 15.4745 40 14.5361 40 13.277C40 12.611 40.116 12.1025 40.3479 11.7514C40.5799 11.4003 40.9217 11.2247 41.3734 11.2247C41.703 11.2247 41.9716 11.3095 42.1792 11.479C42.3867 11.6485 42.4905 11.8664 42.4905 12.1328C42.4905 12.375 42.4722 12.5868 42.4355 12.7684C42.4355 12.8169 42.4233 12.9016 42.3989 13.0227C42.3867 13.1438 42.3806 13.2709 42.3806 13.4041C42.3806 13.9489 42.6553 14.3545 43.2046 14.6209C43.7662 14.8872 44.5475 15.0204 45.5486 15.0204C46.5863 15.0204 47.3982 14.8388 47.9842 14.4756C48.5701 14.1003 48.8631 13.5796 48.8631 12.9137C48.8631 12.5021 48.7289 12.151 48.4603 11.8604C48.1917 11.5577 47.856 11.3095 47.4531 11.1158C47.0502 10.91 46.4825 10.6617 45.7501 10.3712C44.81 10.0079 44.0409 9.66289 43.4427 9.33598C42.8567 9.00908 42.3501 8.56716 41.9228 8.01021C41.5077 7.44116 41.3002 6.73893 41.3002 5.90352C41.3002 5.03178 41.5321 4.25691 41.996 3.57889C42.4722 2.90087 43.1497 2.3742 44.0287 1.99886C44.9199 1.62353 45.9637 1.43587 47.1601 1.43587C48.0513 1.43587 48.8692 1.56905 49.6139 1.83542C50.3586 2.08967 50.9507 2.48316 51.3902 3.01589C51.8419 3.54862 52.0678 4.20242 52.0678 4.9773C52.0678 5.74007 51.9518 6.31517 51.7199 6.70261C51.4879 7.09005 51.1461 7.28377 50.6944 7.28377C50.377 7.28377 50.1084 7.18691 49.8886 6.99319C49.6811 6.79947 49.5773 6.56943 49.5773 6.30307C49.5773 6.07302 49.5956 5.86115 49.6323 5.66743C49.6689 5.3042 49.6872 5.07416 49.6872 4.9773C49.6872 4.46879 49.4369 4.08135 48.9364 3.81498C48.4359 3.54862 47.8132 3.41544 47.0685 3.41544C46.0186 3.41544 45.2129 3.60916 44.6513 3.9966C44.1019 4.37193 43.8273 4.90466 43.8273 5.59478C43.8273 6.05487 43.9677 6.44836 44.2484 6.77526C44.5414 7.10216 44.9016 7.37458 45.3289 7.59251C45.7562 7.81045 46.3544 8.07075 47.1235 8.37344C48.0513 8.74877 48.796 9.08778 49.3576 9.39047C49.9192 9.69315 50.3953 10.1048 50.7859 10.6254C51.1888 11.146 51.3902 11.7877 51.3902 12.5505C51.3902 13.9792 50.8409 15.081 49.7421 15.8558C48.6556 16.6186 47.1967 17 45.3655 17ZM60.9418 12.8048C61.1005 12.8048 61.2226 12.8774 61.308 13.0227C61.4057 13.168 61.4545 13.3678 61.4545 13.622C61.4545 14.1063 61.3385 14.4817 61.1066 14.748C60.5816 15.3897 60.0078 15.9164 59.3852 16.328C58.7626 16.7397 58.0484 16.9455 57.2427 16.9455C54.7522 16.9455 53.507 15.2081 53.507 11.7333C53.507 11.2005 53.5253 10.6617 53.5619 10.1169H52.8477C52.4815 10.1169 52.2312 10.0503 52.0969 9.91714C51.9749 9.78396 51.9138 9.57207 51.9138 9.2815C51.9138 8.60348 52.1885 8.26447 52.7379 8.26447H53.7817C53.9892 6.93266 54.3066 5.71585 54.7339 4.61407C55.1612 3.5123 55.6739 2.63451 56.2721 1.98071C56.8825 1.32691 57.5357 1 58.2315 1C58.7443 1 59.1472 1.22399 59.4402 1.67196C59.7332 2.11994 59.8797 2.68294 59.8797 3.36095C59.8797 5.23761 59.0861 6.87212 57.4991 8.26447H59.55C59.7454 8.26447 59.8858 8.30685 59.9712 8.3916C60.0567 8.47635 60.0994 8.63375 60.0994 8.86379C60.0994 9.69921 59.4096 10.1169 58.0301 10.1169H55.796C55.7716 10.7223 55.7594 11.1945 55.7594 11.5335C55.7594 12.7927 55.9059 13.6765 56.1989 14.185C56.5041 14.6935 56.9802 14.9478 57.6272 14.9478C58.1522 14.9478 58.6161 14.7904 59.019 14.4756C59.4219 14.1608 59.898 13.6886 60.4473 13.059C60.5938 12.8895 60.7586 12.8048 60.9418 12.8048ZM57.7371 2.74347C57.554 2.74347 57.3465 2.97352 57.1145 3.4336C56.8948 3.88158 56.6811 4.51116 56.4736 5.32236C56.2782 6.12146 56.1134 7.01135 55.9791 7.99206C56.6994 7.37458 57.2366 6.68445 57.5906 5.92168C57.9569 5.14681 58.14 4.44457 58.14 3.81498C58.14 3.10064 58.0057 2.74347 57.7371 2.74347ZM61.2638 16.9455C60.7999 16.9455 60.4702 16.7034 60.2749 16.2191C60.0918 15.7348 60.0002 14.9599 60.0002 13.8944C60.0002 12.3205 60.2261 10.8252 60.6778 9.40863C60.7876 9.05751 60.9647 8.80325 61.2088 8.64586C61.4652 8.47635 61.8192 8.3916 62.2709 8.3916C62.5151 8.3916 62.686 8.42187 62.7837 8.4824C62.8813 8.54294 62.9302 8.65796 62.9302 8.82747C62.9302 9.02119 62.8386 9.45706 62.6555 10.1351C62.5334 10.6194 62.4357 11.0431 62.3625 11.4064C62.2892 11.7696 62.2282 12.2176 62.1794 12.7503C62.5822 11.709 63.0339 10.8615 63.5345 10.2077C64.035 9.55392 64.5233 9.08778 64.9995 8.80931C65.4878 8.53083 65.9334 8.3916 66.3363 8.3916C67.1298 8.3916 67.5266 8.78509 67.5266 9.57208C67.5266 9.72947 67.4716 10.1109 67.3617 10.7162C67.2641 11.2005 67.2153 11.5032 67.2153 11.6243C67.2153 12.048 67.3679 12.2599 67.6731 12.2599C68.0149 12.2599 68.4544 11.9936 68.9915 11.4608C69.1502 11.3034 69.3151 11.2247 69.486 11.2247C69.6447 11.2247 69.7668 11.2974 69.8522 11.4427C69.9499 11.5759 69.9987 11.7575 69.9987 11.9875C69.9987 12.4355 69.8766 12.7866 69.6325 13.0409C69.2906 13.392 68.8878 13.6947 68.4239 13.9489C67.9722 14.1911 67.4899 14.3121 66.9772 14.3121C66.3302 14.3121 65.8357 14.1487 65.4939 13.8218C65.1643 13.4949 64.9995 13.053 64.9995 12.496C64.9995 12.3144 65.0178 12.1328 65.0544 11.9512C65.0788 11.709 65.091 11.5456 65.091 11.4608C65.091 11.2671 65.0239 11.1703 64.8896 11.1703C64.7065 11.1703 64.4623 11.3761 64.1571 11.7877C63.8641 12.1873 63.5711 12.72 63.2781 13.3859C62.9851 14.0518 62.7471 14.7541 62.5639 15.4926C62.4296 16.0617 62.2709 16.4491 62.0878 16.6549C61.9169 16.8487 61.6422 16.9455 61.2638 16.9455ZM76.4643 12.8048C76.623 12.8048 76.7451 12.8774 76.8306 13.0227C76.9282 13.168 76.9771 13.3678 76.9771 13.622C76.9771 14.1063 76.8611 14.4817 76.6291 14.748C76.1774 15.2929 75.5365 15.7953 74.7063 16.2554C73.8884 16.7155 73.0094 16.9455 72.0694 16.9455C70.7875 16.9455 69.7925 16.6005 69.0845 15.9103C68.3764 15.2202 68.0224 14.2758 68.0224 13.0772C68.0224 12.2418 68.1994 11.4669 68.5534 10.7526C68.9075 10.0261 69.3958 9.451 70.0184 9.02724C70.6532 8.60348 71.3674 8.3916 72.1609 8.3916C72.869 8.3916 73.4367 8.60348 73.864 9.02724C74.2913 9.43889 74.5049 10.0019 74.5049 10.7162C74.5049 11.5516 74.1997 12.272 73.5893 12.8774C72.9911 13.4707 71.9717 13.9429 70.5311 14.294C70.8364 14.8509 71.4162 15.1294 72.2708 15.1294C72.8202 15.1294 73.4428 14.9417 74.1387 14.5664C74.8467 14.179 75.4571 13.6765 75.9699 13.059C76.1164 12.8895 76.2812 12.8048 76.4643 12.8048ZM71.8496 10.1714C71.3979 10.1714 71.0134 10.4317 70.696 10.9523C70.3908 11.4729 70.2381 12.1025 70.2381 12.8411V12.8774C70.9584 12.7079 71.5261 12.4537 71.9412 12.1146C72.3563 11.7756 72.5638 11.3821 72.5638 10.9342C72.5638 10.7041 72.4967 10.5225 72.3624 10.3893C72.2403 10.244 72.0694 10.1714 71.8496 10.1714ZM83.6534 12.8048C83.8121 12.8048 83.9342 12.8774 84.0197 13.0227C84.1173 13.168 84.1662 13.3678 84.1662 13.622C84.1662 14.1063 84.0502 14.4817 83.8182 14.748C83.3665 15.2929 82.7256 15.7953 81.8954 16.2554C81.0775 16.7155 80.1985 16.9455 79.2585 16.9455C77.9766 16.9455 76.9816 16.6005 76.2736 15.9103C75.5655 15.2202 75.2115 14.2758 75.2115 13.0772C75.2115 12.2418 75.3885 11.4669 75.7425 10.7526C76.0966 10.0261 76.5849 9.451 77.2075 9.02724C77.8423 8.60348 78.5565 8.3916 79.35 8.3916C80.0581 8.3916 80.6258 8.60348 81.0531 9.02724C81.4804 9.43889 81.694 10.0019 81.694 10.7162C81.694 11.5516 81.3888 12.272 80.7784 12.8774C80.1802 13.4707 79.1608 13.9429 77.7202 14.294C78.0254 14.8509 78.6053 15.1294 79.4599 15.1294C80.0093 15.1294 80.6319 14.9417 81.3278 14.5664C82.0358 14.179 82.6462 13.6765 83.159 13.059C83.3055 12.8895 83.4703 12.8048 83.6534 12.8048ZM79.0387 10.1714C78.587 10.1714 78.2025 10.4317 77.8851 10.9523C77.5798 11.4729 77.4272 12.1025 77.4272 12.8411V12.8774C78.1475 12.7079 78.7152 12.4537 79.1303 12.1146C79.5454 11.7756 79.7529 11.3821 79.7529 10.9342C79.7529 10.7041 79.6858 10.5225 79.5515 10.3893C79.4294 10.244 79.2585 10.1714 79.0387 10.1714ZM85.6966 10.1169C85.6722 10.7223 85.66 11.1945 85.66 11.5335C85.66 12.4052 85.7027 13.0893 85.7882 13.5857C85.8858 14.07 86.0384 14.4211 86.246 14.639C86.4657 14.8449 86.7648 14.9478 87.1433 14.9478C87.3386 14.9478 87.5706 14.8872 87.8391 14.7662C88.1077 14.6451 88.3519 14.4877 88.5716 14.294C88.7059 14.1729 88.8402 14.1124 88.9745 14.1124C89.121 14.1124 89.237 14.1971 89.3224 14.3666C89.4201 14.524 89.4689 14.7177 89.4689 14.9478C89.4689 15.1778 89.4201 15.4018 89.3224 15.6197C89.237 15.8377 89.1027 16.0193 88.9196 16.1646C88.2847 16.6852 87.5645 16.9455 86.7587 16.9455C85.5989 16.9455 84.7505 16.4673 84.2133 15.5108C83.6762 14.5422 83.4076 13.283 83.4076 11.7333C83.4076 11.2005 83.4259 10.6617 83.4625 10.1169H82.7483C82.3821 10.1169 82.1318 10.0503 81.9975 9.91714C81.8755 9.78396 81.8144 9.57207 81.8144 9.2815C81.8144 8.60348 82.0891 8.26447 82.6385 8.26447H83.6823C83.8898 6.93266 84.2072 5.71585 84.6345 4.61407C85.0618 3.5123 85.5745 2.63451 86.1727 1.98071C86.7831 1.32691 87.4363 1 88.1321 1C88.6449 1 89.0478 1.22399 89.3408 1.67196C89.6338 2.11994 89.7803 2.68294 89.7803 3.36095C89.7803 5.23761 88.9867 6.87212 87.3997 8.26447H89.4506C89.646 8.26447 89.7864 8.30685 89.8718 8.3916C89.9573 8.47635 90 8.63375 90 8.86379C90 9.69921 89.3102 10.1169 87.9307 10.1169H85.6966ZM87.6377 2.74347C87.4546 2.74347 87.2471 2.97352 87.0151 3.4336C86.7953 3.88158 86.5817 4.51116 86.3742 5.32236C86.1788 6.12146 86.014 7.01135 85.8797 7.99206C86.6 7.37458 87.1372 6.68445 87.4912 5.92168C87.8575 5.14681 88.0406 4.44457 88.0406 3.81498C88.0406 3.10064 87.9063 2.74347 87.6377 2.74347Z" fill="#2F2105"/>
</svg>
