<svg width="70" height="70" viewBox="0 0 70 70" fill="none" xmlns="http://www.w3.org/2000/svg">
<circle cx="35" cy="35" r="35" fill="white"/>
<path d="M54 21.5C54 27.4674 52 33.5 49 37.4099C45 41.5 45 44 33.5222 44C22.0444 44 22 42.1151 17.6123 37.4099C13.2246 32.7047 13 27.9674 13 22H17C17 30.5 20.4388 34.5834 20.4388 34.5834C20.4388 34.5834 23.5222 40.0027 33.5222 40.0027C43.5222 40.0027 46 34.5834 46 34.5834C46 34.5834 49.4321 28.5 49.4321 21.5H54Z" fill="#2F2105"/>
<path d="M49.4596 29.5273C49.8656 30.8568 50.6895 32.02 51.8091 32.8441C52.9286 33.6682 54.2841 34.1094 55.6742 34.102C57.0643 34.0946 58.415 33.6391 59.5258 32.8032C60.6365 31.9673 61.4481 30.7954 61.84 29.4616C62.2319 28.1279 62.1832 26.7033 61.7012 25.3993C61.2192 24.0954 60.3296 22.9817 59.1643 22.2235C57.9991 21.4653 56.6205 21.1031 55.2331 21.1906C53.8457 21.2781 52.5235 21.8107 51.4628 22.7093L53.6146 25.2492C54.1289 24.8135 54.77 24.5553 55.4427 24.5129C56.1154 24.4704 56.7838 24.6461 57.3488 25.0137C57.9138 25.3813 58.3452 25.9213 58.5789 26.5535C58.8126 27.1858 58.8362 27.8765 58.6462 28.5232C58.4561 29.1699 58.0626 29.7381 57.5241 30.1434C56.9855 30.5488 56.3306 30.7696 55.6566 30.7732C54.9825 30.7768 54.3253 30.5629 53.7825 30.1633C53.2396 29.7637 52.8401 29.1997 52.6433 28.5551L49.4596 29.5273Z" fill="#2F2105"/>
<path d="M47 21.595C47 25.9458 45.525 30.1185 42.8995 33.1951C40.274 36.2716 36.713 38 33 38C29.287 38 25.726 36.2716 23.1005 33.1951C20.475 30.1185 19 25.9458 19 21.595C19 21.595 27 25.1836 33 21.595C39 18.0063 47 21.595 47 21.595Z" fill="#FF912B"/>
<path d="M51.7553 47H15.2447C14.5573 47 14 47.6716 14 48.5C14 49.3284 14.5573 50 15.2447 50H51.7553C52.4427 50 53 49.3284 53 48.5C53 47.6716 52.4427 47 51.7553 47Z" fill="#2F2105"/>
</svg>
